PathFileType	4	(X/Y/Z)	S01_0019_Gait_markers.trc
DataRate	CameraRate	NumFrames	NumMarkers	Units	OrigDataRate	OrigDataStartFrame	OrigNumFrames
250.000000	250.000000	4	54	mm	250.000000	181	363
Frame#	Time	HEAD_ANT			R_HEAD			L_HEAD			C7			R_BACK			L_BACK			STERNUM			R_ACROMION			R_HUM_PROX			R_HUM_ANT			R_HUM_POST			R_ELBOW_LAT			R_ELBOW_MED			R_FOREARM			R_WIRST_LAT			R_WRITS_MED			R_HAND			L_ACROMION			L_HUM_PROX			L_HUM_ANT			L_HUM_POST			L_ELBOW_LAT			L_ELBOW_MED			L_FOREARM			L_WRIST_LAT			L_WIRST_MED			L_HAND			R_ILIAC			SACRUM			L_ILIAC			R_GTROCH			R_THIGH__1			R_THIGH_2			R_THIGH_3			R_THIGH_4			R_SHANK_1			R_SHANK_2			R_SHANK_3			R_SHANK_4			R_HEEL			R_FOOT_LAT			R_FOOT_MED			L_GTROCH			L_THIGH_1			L_THIGH_2			L_THIGH_3			L_THIGH_4			L_SHANK_1			L_SHANK_2			L_SHANK_3			L_SHANK_4			L_HEEL			L_FOOT_LAT			L_FOOT_MED			
		X1	Y1	Z1	X2	Y2	Z2	X3	Y3	Z3	X4	Y4	Z4	X5	Y5	Z5	X6	Y6	Z6	X7	Y7	Z7	X8	Y8	Z8	X9	Y9	Z9	X10	Y10	Z10	X11	Y11	Z11	X12	Y12	Z12	X13	Y13	Z13	X14	Y14	Z14	X15	Y15	Z15	X16	Y16	Z16	X17	Y17	Z17	X18	Y18	Z18	X19	Y19	Z19	X20	Y20	Z20	X21	Y21	Z21	X22	Y22	Z22	X23	Y23	Z23	X24	Y24	Z24	X25	Y25	Z25	X26	Y26	Z26	X27	Y27	Z27	X28	Y28	Z28	X29	Y29	Z29	X30	Y30	Z30	X31	Y31	Z31	X32	Y32	Z32	X33	Y33	Z33	X34	Y34	Z34	X35	Y35	Z35	X36	Y36	Z36	X37	Y37	Z37	X38	Y38	Z38	X39	Y39	Z39	X40	Y40	Z40	X41	Y41	Z41	X42	Y42	Z42	X43	Y43	Z43	X44	Y44	Z44	X45	Y45	Z45	X46	Y46	Z46	X47	Y47	Z47	X48	Y48	Z48	X49	Y49	Z49	X50	Y50	Z50	X51	Y51	Z51	X52	Y52	Z52	X53	Y53	Z53	X54	Y54	Z54	

182	0.724	1016.545776367188	1706.285400390625	-320.6193847656246	961.2393798828125	1655.99462890625	-239.9155731201168	956.9642333984375	1653.579711914062	-387.2570495605465	824.57861328125	1482.422119140625	-305.9386596679684	759.57080078125	1285.656372070312	-235.7204437255857	754.3033447265625	1285.716430664062	-369.5827026367185	1007.469482421875	1323.46435546875	-310.222717285156	910.157470703125	1434.05126953125	-137.0671997070309	885.4527587890625	1274.936767578125	-42.99777221679659	951.2317504882812	1192.306518554688	-43.47850036621067	830.6939086914062	1189.021240234375	-24.98039817810032	885.24755859375	1084.756591796875	-19.57462120056128	852.847412109375	1077.015258789062	-96.6769866943357	1014.9580078125	919.3272094726562	-39.47387695312479	1057.380249023438	862.6455078125	-85.93800354003888	1002.432739257812	827.6632690429688	-39.56457138061505	1085.819946289062	777.4788818359375	-36.47306060790999	898.0093994140625	1435.983642578125	-477.168792724609	858.9422607421875	1268.711181640625	-567.250305175781	917.3319091796875	1185.75048828125	-576.5688476562498	792.9910278320312	1193.4013671875	-583.885559082031	847.7283935546875	1086.069458007813	-597.8743896484373	800.022216796875	1083.060302734375	-535.476379394531	943.7686157226562	906.6648559570314	-596.3917236328123	977.861328125	843.3447265625001	-547.1481933593748	927.0772705078125	825.7078857421876	-606.7262573242185	996.5520629882812	760.6823730468751	-594.4197387695311	901.5073852539062	1037.864868164062	-127.4701538085935	779.8353271484375	1011.355834960938	-306.4642944335935	907.8921508789062	1026.432983398438	-475.791809082031	831.4090576171875	906.6349487304688	-117.786781311035	780.7626953125	637.7587280273438	-144.5792541503905	839.0607299804688	634.4650268554688	-137.5849609374999	811.0606079101562	536.5838623046875	-173.3501892089843	752.0479736328125	563.057861328125	-167.1471710205077	623.1702270507812	374.8178710937501	-169.1766052246093	657.5606079101562	328.1333007812501	-185.685821533203	607.2799682617188	260.8417968750001	-205.9579925537109	557.8795166015625	299.2855529785157	-195.0707855224609	409.399169921875	156.5742950439454	-278.6213378906249	521.722900390625	26.29854965209966	-213.4061584472656	579.0242309570312	29.4718208312989	-310.6581726074219	885.79296875	914.8595581054689	-481.7660217285154	1073.527221679688	671.4176025390626	-451.7666015624998	1018.114624023438	666.6572875976564	-472.6289978027342	1040.59326171875	568.6639404296876	-436.3206176757811	1097.320068359375	596.4422607421876	-421.3236694335936	1152.206787109375	333.9990539550782	-418.4530639648437	1103.250122070312	297.6250915527345	-421.9802246093749	1123.869140625	214.2282714843751	-405.7948303222656	1182.597900390625	238.001678466797	-396.3431396484374	1124.942504882812	35.16539382934578	-337.7238159179688	1304.331665039062	35.12986755371102	-398.0422058105469	1335.757690429688	53.14395904541022	-300.674560546875	
183	0.728	1022.559753417969	1706.593139648438	-321.2465515136715	967.2529296875	1656.3251953125	-240.5182952880856	963.115234375	1653.794555664062	-388.0303344726559	830.8240966796875	1482.408813476562	-306.7194213867184	766.2330322265625	1285.427001953125	-236.7937011718747	760.7098388671875	1285.598876953125	-370.0723571777341	1013.874267578125	1323.818115234375	-310.5974426269528	916.2815551757812	1434.279418945312	-137.6071166992184	891.2926635742188	1275.083984375	-43.54971313476534	956.9632568359375	1192.348999023438	-43.67096328735325	836.2965698242188	1189.123901367188	-25.7975120544431	891.1179809570312	1084.801513671875	-20.26356697082495	858.8434448242188	1076.981689453125	-97.23821258544898	1020.087158203125	918.7796630859375	-39.61582565307597	1062.385864257812	861.9530639648438	-85.84777832031232	1007.125671386719	827.2301025390625	-39.4158287048338	1090.50634765625	776.8504638671875	-36.21569824218733	904.2066650390625	1435.988891601562	-477.9012451171872	865.319091796875	1268.405029296875	-567.607482910156	923.8017578125	1185.592651367188	-577.1447753906248	799.3655395507812	1193.057006835938	-583.8864135742185	851.4219360351562	1086.843017578125	-599.182922363281	806.7330932617188	1082.560424804688	-535.6571655273435	950.5997314453125	905.9209594726564	-596.723205566406	984.2052612304688	842.7937622070314	-547.3311767578123	933.2276000976562	825.2135009765626	-607.0047607421873	1002.768493652344	760.1497192382814	-594.7621459960936	908.0686645507812	1037.59375	-127.0881271362302	786.3892211914062	1011.872436523438	-306.3251037597654	914.581298828125	1026.591552734375	-476.0314636230466	838.242431640625	906.0323486328125	-117.9950866699217	788.4088745117188	636.8233032226562	-145.0788269042967	846.6963500976562	633.7620849609375	-137.9324951171874	819.1116333007812	535.696533203125	-173.4985198974608	760.1334228515625	562.0410766601562	-167.522491455078	629.7844848632812	375.6492309570313	-168.7978210449218	663.5965576171875	328.5055236816407	-185.0875701904296	612.54638671875	261.7194824218751	-205.3748931884765	563.7908325195312	301.2492980957032	-193.8878173828124	413.6112976074219	160.4028625488282	-277.5957031249999	522.6271362304688	26.99102592468266	-213.3770599365234	579.2340087890625	29.48318290710456	-310.6754455566406	894.2698364257812	916.5213012695314	-482.1105346679685	1080.765502929688	672.4973754882814	-451.4114685058592	1025.486328125	668.0897216796876	-472.3601989746092	1047.79833984375	569.5833740234376	-436.5502624511718	1104.54296875	597.0579833984376	-421.2914733886718	1158.432495117188	334.6674194335939	-418.4532775878906	1108.913818359375	298.8021850585939	-422.6442260742187	1128.338134765625	215.0082244873048	-406.4429626464843	1187.345458984375	237.8887786865235	-396.1041564941406	1125.735595703125	35.87704849243172	-337.9705505371094	1305.450317382812	32.47818374633798	-397.4483642578125	1336.575927734375	49.95058822631842	-299.84375	
184	0.732	1028.539672851562	1706.935424804688	-321.8531799316402	973.1401977539062	1656.724853515625	-241.0942382812496	969.2724609375	1654.182495117188	-388.5659790039059	837.107666015625	1482.70947265625	-307.2876281738278	772.6392822265625	1285.40380859375	-237.4737396240232	767.0380249023438	1285.726196289062	-370.5022888183591	1020.178588867188	1324.149780273438	-311.0834960937497	922.3488159179688	1434.51904296875	-137.9257507324216	897.1478881835938	1275.369262695312	-44.16395568847628	962.68505859375	1192.520751953125	-43.92478179931614	841.8883666992188	1189.493896484375	-26.30524444580052	896.6388549804688	1084.969604492188	-20.67577171325659	864.5315551757812	1077.09765625	-97.86533355712866	1025.187255859375	918.4175415039062	-39.60539245605448	1067.329345703125	861.3955078125	-85.74925994873028	1011.936584472656	826.9127807617188	-39.38750457763653	1095.007690429688	776.0960693359375	-35.98708724975569	910.4788818359375	1435.907470703125	-478.5243225097653	871.7675170898438	1268.252319335938	-567.8781127929685	930.4361572265625	1185.83642578125	-577.8817138671873	805.805908203125	1192.942260742188	-583.1760253906248	858.090576171875	1086.529296875	-599.2521362304685	813.4612426757812	1082.313842773438	-535.6916503906248	957.1018676757812	905.6369018554689	-596.8748779296873	990.6702880859375	842.2882080078126	-548.4064331054685	939.5426025390625	824.8176269531251	-607.154846191406	1008.804382324219	759.6981811523439	-595.2797851562499	915.60986328125	1037.085205078125	-127.7917556762693	792.9854736328125	1012.307983398438	-306.146545410156	921.5127563476562	1026.662475585938	-476.6722412109373	845.1466064453125	905.1704711914062	-118.2501068115232	796.367919921875	636.01513671875	-145.2776489257811	854.546875	633.0540161132812	-138.1995849609374	827.4383544921875	534.9339599609375	-173.3603668212889	768.49609375	561.2058715820312	-167.6245269775389	636.7944946289062	376.5665893554688	-167.980972290039	669.8128662109375	328.8166503906251	-184.4730377197265	618.0262451171875	262.5673217773438	-204.4893798828124	569.7803344726562	302.6973876953126	-193.5247650146484	418.197021484375	164.2561950683594	-276.6499633789062	523.6114501953125	27.72122001647954	-213.3440246582031	579.4530029296875	29.4945259094239	-310.7107543945312	901.3038330078125	917.5582275390626	-482.3959045410154	1087.604858398438	673.6100463867189	-449.6638793945311	1032.89697265625	669.3934326171876	-472.088165283203	1055.2529296875	571.0838012695314	-436.7098999023436	1112.008911132812	598.8713378906251	-421.1678771972655	1164.60205078125	334.8190002441407	-418.3719482421874	1114.723266601562	300.0632324218751	-423.2345886230468	1132.32861328125	215.6978454589845	-406.9118652343749	1191.476806640625	237.5614166259766	-395.8259887695312	1126.261962890625	36.40873336792	-338.1661987304688	1306.143188476562	29.65872573852548	-396.8641967773438	1337.227661132812	46.80020141601569	-299.1390380859375	
185	0.736	1034.435913085938	1707.3349609375	-322.4008483886715	979.0692138671875	1657.275146484375	-241.8861541748043	975.2424926757812	1654.595092773438	-389.3847351074215	843.5514526367188	1482.716918945312	-308.2350769042965	778.895263671875	1285.53076171875	-238.2294464111325	773.9998779296875	1285.998168945312	-370.923889160156	1026.657348632812	1324.578491210938	-311.6349792480466	928.4223022460938	1434.966064453125	-138.3417358398434	902.9329833984375	1275.647094726562	-44.6506919860837	968.38427734375	1192.768676757812	-44.09310913085911	846.8558959960938	1189.866577148438	-27.1981296539304	902.5719604492188	1085.214233398438	-21.41086578369116	870.2670288085938	1077.405151367188	-98.38478851318335	1030.167602539062	918.0835571289062	-39.54352951049784	1072.132080078125	860.8643188476562	-85.6460647583006	1016.578002929688	826.6563720703125	-39.33342361450177	1099.311401367188	775.5128173828125	-35.90612792968733	916.8829956054688	1435.854370117188	-479.0524597167965	878.234130859375	1268.190307617188	-568.1356201171873	937.0145263671875	1185.758422851563	-578.5627441406248	812.2269897460938	1192.745849609375	-583.1672363281248	864.6736450195312	1086.171020507813	-599.1676025390623	820.2767333984375	1082.098388671875	-535.5604858398435	963.53662109375	905.2792968750001	-597.021057128906	996.7819213867188	842.0166625976564	-548.442443847656	945.7362670898438	824.4993286132814	-607.3686523437498	1014.853271484375	759.2973022460939	-595.7147216796874	922.585693359375	1036.802001953125	-128.0551147460935	799.5181884765625	1012.595947265625	-305.9936828613279	928.0007934570312	1026.999633789062	-476.3683776855466	852.0953369140625	904.6143798828125	-118.3703079223631	804.2544555664062	635.2289428710938	-145.672149658203	862.5318603515625	632.4537963867188	-138.3545837402342	835.7694091796875	534.2163696289062	-173.3203124999999	776.8588256835938	560.4070434570312	-167.5109405517577	643.8112182617188	377.4746398925782	-167.449249267578	676.3646240234375	329.3044433593751	-183.4383087158202	623.7151489257812	263.7242736816407	-203.6334381103515	575.9404907226562	304.3952026367188	-192.8075256347656	423.1794738769531	168.3033599853516	-275.4823303222656	524.619873046875	28.45139884948735	-213.3384857177734	579.6705932617188	29.52903747558601	-310.8223876953125	909.744384765625	919.1522827148439	-482.289611816406	1095.197998046875	675.3043823242189	-449.8379821777342	1040.872680664062	670.7816772460939	-472.0489196777342	1063.049560546875	572.1816406250001	-436.9744567871093	1119.6298828125	599.6828613281251	-420.9403686523436	1170.296752929688	334.9168395996095	-418.2173156738281	1119.947387695312	300.8739624023439	-423.8820800781249	1136.080810546875	216.0890655517579	-407.9120788574218	1195.376586914062	237.0481262207032	-395.7715759277343	1126.738159179688	36.84300994873055	-338.4746398925781	1306.686401367188	27.07387351989755	-396.2301025390625	1337.609252929688	43.78968811035163	-298.3036499023438	
